<?xml version="1.0" standalone="no"?><!DOCTYPE svg PUBLIC "-//W3C//DTD SVG 1.1//EN" "http://www.w3.org/Graphics/SVG/1.1/DTD/svg11.dtd"><svg class="icon" width="200px" height="200.00px" viewBox="0 0 1024 1024" version="1.1" xmlns="http://www.w3.org/2000/svg"><path d="M896.465455 640.930909a62.060606 62.060606 0 0 1 62.060606 62.060606v74.845091a62.060606 62.060606 0 0 1-62.060606 62.060606H141.094788a62.060606 62.060606 0 0 1-62.060606-62.060606v-74.845091a62.060606 62.060606 0 0 1 62.060606-62.060606H896.465455z m-272.849455 52.937697a46.545455 46.545455 0 1 0 0 93.090909 46.545455 46.545455 0 0 0 0-93.090909z m162.443636 0a46.545455 46.545455 0 1 0 0 93.090909 46.545455 46.545455 0 0 0 0-93.090909zM247.808 169.828848h530.928485a62.060606 62.060606 0 0 1 58.616242 41.642667l108.854303 312.164849a62.060606 62.060606 0 0 1-58.616242 82.478545H138.953697a62.060606 62.060606 0 0 1-58.585212-82.509576l108.854303-312.164848a62.060606 62.060606 0 0 1 58.585212-41.580606z" fill="#7666FA" /></svg>