<?xml version="1.0" standalone="no"?><!DOCTYPE svg PUBLIC "-//W3C//DTD SVG 1.1//EN" "http://www.w3.org/Graphics/SVG/1.1/DTD/svg11.dtd"><svg class="icon" width="200px" height="200.00px" viewBox="0 0 1024 1024" version="1.1" xmlns="http://www.w3.org/2000/svg"><path d="M865.9456 888.3712H165.5808A89.2416 89.2416 0 0 1 76.8 798.72V202.5984a89.2416 89.2416 0 0 1 88.7808-89.6512h309.248A88.4224 88.4224 0 0 1 532.48 134.5536l89.856 77.7728a88.32 88.32 0 0 0 57.8048 21.6064h185.6512a89.1904 89.1904 0 0 1 88.7808 89.6V798.72a89.2416 89.2416 0 0 1-88.6272 89.6512z" fill="#337ECC" /><path d="M826.5216 888.3712h-665.6A84.3776 84.3776 0 0 1 76.8 803.84V242.8928A84.3264 84.3264 0 0 1 161.1264 158.72h293.8368a84.3264 84.3264 0 0 1 54.8864 20.48l85.4016 73.216a84.2752 84.2752 0 0 0 54.8864 20.48h176.384a84.3264 84.3264 0 0 1 84.3264 83.8656V803.84a84.3264 84.3264 0 0 1-84.3264 84.5312z" fill="#409EFF" /><path d="M370.7904 452.4544m55.1424 0l312.4736 0q55.1424 0 55.1424 55.1424l0 18.8928q0 55.1424-55.1424 55.1424l-312.4736 0q-55.1424 0-55.1424-55.1424l0-18.8928q0-55.1424 55.1424-55.1424Z" fill="#337ECC" /><path d="M370.7904 639.3856m55.1424 0l312.4736 0q55.1424 0 55.1424 55.1424l0 18.8928q0 55.1424-55.1424 55.1424l-312.4736 0q-55.1424 0-55.1424-55.1424l0-18.8928q0-55.1424 55.1424-55.1424Z" fill="#337ECC" /><path d="M251.8016 503.04m-71.0656 0a71.0656 71.0656 0 1 0 142.1312 0 71.0656 71.0656 0 1 0-142.1312 0Z" fill="#337ECC" /><path d="M251.8016 691.9168m-71.0656 0a71.0656 71.0656 0 1 0 142.1312 0 71.0656 71.0656 0 1 0-142.1312 0Z" fill="#337ECC" /><path d="M254.208 490.0864m-58.112 0a58.112 58.112 0 1 0 116.224 0 58.112 58.112 0 1 0-116.224 0Z" fill="#FFFFFF" /><path d="M370.7904 431.9744m55.1424 0l312.4736 0q55.1424 0 55.1424 55.1424l0 0q0 55.1424-55.1424 55.1424l-312.4736 0q-55.1424 0-55.1424-55.1424l0 0q0-55.1424 55.1424-55.1424Z" fill="#FFFFFF" /><path d="M254.208 676.3008m-58.112 0a58.112 58.112 0 1 0 116.224 0 58.112 58.112 0 1 0-116.224 0Z" fill="#FFFFFF" /><path d="M370.7904 618.1888m55.1424 0l312.4736 0q55.1424 0 55.1424 55.1424l0 0q0 55.1424-55.1424 55.1424l-312.4736 0q-55.1424 0-55.1424-55.1424l0 0q0-55.1424 55.1424-55.1424Z" fill="#FFFFFF" /></svg>